# 3ds Max Wavefront OBJ Exporter v0.97b - (c)2007 guruware
# File Created: 06.11.2019 20:11:06

#
# object pCube3
#

v  1.7368 -0.5000 0.8784
v  1.1335 0.5000 0.0865
v  1.1335 0.5000 -0.0865
v  1.7368 -0.5000 -0.8784
v  1.2156 0.3100 0.1663
v  1.3702 0.0257 0.3034
v  1.5480 -0.1434 0.4482
v  1.2156 0.3100 -0.1663
v  1.3702 0.0257 -0.3034
v  1.5480 -0.1434 -0.4482
v  0.0000 -0.5000 0.8784
v  0.0000 -0.5000 -0.8784
v  0.0000 -0.2083 -0.4621
v  0.0000 0.0257 -0.3144
v  0.0000 0.3100 -0.1674
v  0.0000 0.5000 -0.0865
v  0.0000 0.5000 0.0865
v  0.0000 0.3100 0.1674
v  0.0000 0.0257 0.3144
v  0.0000 -0.2083 0.4621
v  0.6078 0.3100 0.1661
v  0.5791 0.5000 0.0865
v  0.5791 0.5000 -0.0865
v  0.6078 0.3100 -0.1661
v  0.6851 0.0257 -0.3092
v  0.7740 -0.2083 -0.4576
v  0.9292 -0.5000 -0.8784
v  0.9292 -0.5000 0.8784
v  0.7740 -0.2083 0.4576
v  0.6851 0.0257 0.3092
v  2.1314 -0.4302 -0.8784
v  2.1314 -0.4302 0.8784
v  1.8209 -0.2177 -0.5258
v  1.8209 -0.2177 0.5258
v  2.3451 -0.2480 -0.8784
v  2.3451 -0.2480 0.8784
v  2.0980 -0.2318 -0.5807
v  2.0980 -0.2318 0.5807
v  0.7790 0.6031 0.0865
v  0.7790 0.6031 -0.0865
v  1.0923 0.6360 0.0865
v  1.0923 0.6360 -0.0865
v  0.8985 0.7401 0.0865
v  0.8985 0.7401 -0.0865
v  1.0624 0.7887 0.0865
v  1.0624 0.7887 -0.0865
v  0.9161 0.8699 0.0655
v  0.9161 0.8699 -0.0655
v  0.9412 0.9820 0.0655
v  0.9412 0.9820 -0.0655
v  -1.7368 -0.5000 0.8784
v  -1.1335 0.5000 0.0865
v  -1.1335 0.5000 -0.0865
v  -1.7368 -0.5000 -0.8784
v  -1.2156 0.3100 0.1663
v  -1.3702 0.0257 0.3034
v  -1.5480 -0.1434 0.4482
v  -1.2156 0.3100 -0.1663
v  -1.3702 0.0257 -0.3034
v  -1.5480 -0.1434 -0.4482
v  -0.6078 0.3100 0.1661
v  -0.5791 0.5000 0.0865
v  -0.5791 0.5000 -0.0865
v  -0.6078 0.3100 -0.1661
v  -0.6851 0.0257 -0.3092
v  -0.7740 -0.2083 -0.4576
v  -0.9292 -0.5000 -0.8784
v  -0.9292 -0.5000 0.8784
v  -0.7740 -0.2083 0.4576
v  -0.6851 0.0257 0.3092
v  -2.1314 -0.4302 -0.8784
v  -2.1314 -0.4302 0.8784
v  -1.8209 -0.2177 -0.5258
v  -1.8209 -0.2177 0.5258
v  -2.3451 -0.2480 -0.8784
v  -2.3451 -0.2480 0.8784
v  -2.0980 -0.2318 -0.5807
v  -2.0980 -0.2318 0.5807
v  -0.7790 0.6031 0.0865
v  -0.7790 0.6031 -0.0865
v  -1.0923 0.6360 0.0865
v  -1.0923 0.6360 -0.0865
v  -0.8985 0.7401 0.0865
v  -0.8985 0.7401 -0.0865
v  -1.0624 0.7887 0.0865
v  -1.0624 0.7887 -0.0865
v  -0.9161 0.8699 0.0655
v  -0.9161 0.8699 -0.0655
v  -0.9412 0.9820 0.0655
v  -0.9412 0.9820 -0.0655
# 90 vertices

vn 0.0000 1.0000 0.0000
vn 0.0000 1.0000 0.0000
vn 0.0000 1.0000 0.0000
vn 0.0000 1.0000 0.0000
vn 0.0000 1.0000 0.0000
vn 0.0000 1.0000 0.0000
vn 0.0000 -1.0000 0.0000
vn 0.0000 -1.0000 0.0000
vn 0.0000 -1.0000 0.0000
vn 0.0000 -1.0000 0.0000
vn 0.0000 -1.0000 0.0000
vn 0.0000 -1.0000 0.0000
vn 0.0051 0.4954 0.8686
vn 0.0052 0.5021 0.8648
vn 0.0034 0.4341 0.9008
vn 0.0034 0.4341 0.9008
vn 0.0032 0.4307 0.9025
vn 0.0051 0.4954 0.8686
vn 0.0029 0.7430 0.6693
vn 0.0025 0.7631 0.6463
vn 0.0052 0.5021 0.8648
vn 0.0052 0.5021 0.8648
vn 0.0051 0.4954 0.8686
vn 0.0029 0.7430 0.6693
vn 0.0032 0.4307 0.9025
vn 0.0034 0.4341 0.9008
vn 0.0010 0.3889 0.9213
vn 0.0010 0.3889 0.9213
vn 0.0010 0.3889 0.9213
vn 0.0032 0.4307 0.9025
vn 0.0032 0.4307 -0.9025
vn 0.0010 0.3889 -0.9213
vn 0.0010 0.3889 -0.9213
vn 0.0010 0.3889 -0.9213
vn 0.0034 0.4341 -0.9008
vn 0.0032 0.4307 -0.9025
vn 0.8859 0.4639 -0.0000
vn 0.9179 0.3968 -0.0000
vn 0.9179 0.3968 -0.0000
vn 0.9179 0.3968 -0.0000
vn 0.8859 0.4639 -0.0000
vn 0.8859 0.4639 -0.0000
vn 0.0015 0.8206 0.5715
vn 0.0015 0.8206 0.5715
vn 0.0025 0.7631 0.6463
vn 0.0025 0.7631 0.6463
vn 0.0029 0.7430 0.6693
vn 0.0015 0.8206 0.5715
vn 0.0656 0.9978 0.0000
vn 0.0656 0.9978 0.0000
vn 0.0656 0.9978 0.0000
vn 0.0656 0.9978 0.0000
vn 0.0656 0.9978 0.0000
vn 0.0656 0.9978 0.0000
vn 0.0015 0.8206 -0.5715
vn 0.0029 0.7430 -0.6693
vn 0.0025 0.7631 -0.6463
vn 0.0025 0.7631 -0.6463
vn 0.0015 0.8206 -0.5715
vn 0.0015 0.8206 -0.5715
vn 0.7566 0.6539 0.0000
vn 0.7566 0.6539 0.0000
vn 0.8859 0.4639 -0.0000
vn 0.8859 0.4639 -0.0000
vn 0.8859 0.4639 -0.0000
vn 0.7566 0.6539 0.0000
vn 0.6891 0.7247 0.0000
vn 0.6891 0.7247 0.0000
vn 0.7566 0.6539 0.0000
vn 0.7566 0.6539 0.0000
vn 0.7566 0.6539 0.0000
vn 0.6891 0.7247 0.0000
vn 0.0034 0.4341 -0.9008
vn 0.0052 0.5021 -0.8648
vn 0.0051 0.4954 -0.8686
vn 0.0051 0.4954 -0.8686
vn 0.0032 0.4307 -0.9025
vn 0.0034 0.4341 -0.9008
vn 0.0052 0.5021 -0.8648
vn 0.0025 0.7631 -0.6463
vn 0.0029 0.7430 -0.6693
vn 0.0029 0.7430 -0.6693
vn 0.0051 0.4954 -0.8686
vn 0.0052 0.5021 -0.8648
vn 0.0021 0.4192 0.9079
vn 0.0028 0.4290 0.9033
vn -0.0002 0.3865 0.9223
vn -0.0002 0.3865 0.9223
vn -0.0002 0.3865 0.9223
vn 0.0021 0.4192 0.9079
vn -0.9758 0.2188 -0.0000
vn -0.9758 0.2188 -0.0000
vn -0.9758 0.2188 -0.0000
vn -0.9758 0.2188 -0.0000
vn -0.9758 0.2188 -0.0000
vn -0.9758 0.2188 -0.0000
vn 0.0021 0.4192 -0.9079
vn -0.0002 0.3865 -0.9223
vn -0.0002 0.3865 -0.9223
vn -0.0002 0.3865 -0.9223
vn 0.0028 0.4290 -0.9033
vn 0.0021 0.4192 -0.9079
vn 0.0028 0.4290 -0.9033
vn -0.0099 0.5334 -0.8458
vn -0.0044 0.4982 -0.8670
vn -0.0044 0.4982 -0.8670
vn 0.0021 0.4192 -0.9079
vn 0.0028 0.4290 -0.9033
vn -0.0099 0.5334 -0.8458
vn -0.0268 0.7553 -0.6548
vn -0.0248 0.7192 -0.6943
vn -0.0248 0.7192 -0.6943
vn -0.0044 0.4982 -0.8670
vn -0.0099 0.5334 -0.8458
vn -0.0288 0.7895 -0.6130
vn -0.0248 0.7192 -0.6943
vn -0.0268 0.7553 -0.6548
vn -0.0268 0.7553 -0.6548
vn -0.0288 0.7895 -0.6130
vn -0.0288 0.7895 -0.6130
vn 0.0000 -1.0000 0.0000
vn 0.0000 -1.0000 0.0000
vn 0.0000 -1.0000 0.0000
vn 0.0000 -1.0000 0.0000
vn 0.0000 -1.0000 0.0000
vn 0.0000 -1.0000 0.0000
vn -0.0288 0.7895 0.6130
vn -0.0288 0.7895 0.6130
vn -0.0268 0.7553 0.6548
vn -0.0268 0.7553 0.6548
vn -0.0248 0.7192 0.6943
vn -0.0288 0.7895 0.6130
vn -0.0248 0.7192 0.6943
vn -0.0268 0.7553 0.6548
vn -0.0099 0.5334 0.8458
vn -0.0099 0.5334 0.8458
vn -0.0044 0.4982 0.8670
vn -0.0248 0.7192 0.6943
vn -0.0044 0.4982 0.8670
vn -0.0099 0.5334 0.8458
vn 0.0028 0.4290 0.9033
vn 0.0028 0.4290 0.9033
vn 0.0021 0.4192 0.9079
vn -0.0044 0.4982 0.8670
vn 0.1742 -0.9847 0.0000
vn 0.1742 -0.9847 0.0000
vn 0.1742 -0.9847 0.0000
vn 0.1742 -0.9847 0.0000
vn 0.1742 -0.9847 0.0000
vn 0.1742 -0.9847 0.0000
vn -0.0660 0.7866 -0.6139
vn -0.0660 0.7866 -0.6139
vn -0.0660 0.7866 -0.6139
vn -0.0660 0.7866 -0.6139
vn -0.0660 0.7866 -0.6139
vn -0.0660 0.7866 -0.6139
vn 0.2627 0.9649 0.0000
vn 0.2627 0.9649 0.0000
vn 0.2627 0.9649 0.0000
vn 0.2627 0.9649 0.0000
vn 0.2627 0.9649 0.0000
vn 0.2627 0.9649 0.0000
vn -0.0660 0.7866 0.6139
vn -0.0660 0.7866 0.6139
vn -0.0660 0.7866 0.6139
vn -0.0660 0.7866 0.6139
vn -0.0660 0.7866 0.6139
vn -0.0660 0.7866 0.6139
vn 0.6487 -0.7610 0.0000
vn 0.6487 -0.7610 0.0000
vn 0.6487 -0.7610 0.0000
vn 0.6487 -0.7610 0.0000
vn 0.6487 -0.7610 0.0000
vn 0.6487 -0.7610 0.0000
vn -0.3252 0.7696 -0.5495
vn -0.3252 0.7696 -0.5495
vn -0.3252 0.7696 -0.5495
vn -0.3252 0.7696 -0.5495
vn -0.3252 0.7696 -0.5495
vn -0.3252 0.7696 -0.5495
vn 0.0507 0.9987 0.0000
vn 0.0507 0.9987 0.0000
vn 0.0507 0.9987 0.0000
vn 0.0507 0.9987 0.0000
vn 0.0507 0.9987 0.0000
vn 0.0507 0.9987 0.0000
vn -0.3252 0.7696 0.5495
vn -0.3252 0.7696 0.5495
vn -0.3252 0.7696 0.5495
vn -0.3252 0.7696 0.5495
vn -0.3252 0.7696 0.5495
vn -0.3252 0.7696 0.5495
vn -0.4586 0.8887 0.0000
vn -0.4586 0.8887 0.0000
vn -0.4586 0.8887 0.0000
vn -0.4586 0.8887 0.0000
vn -0.4586 0.8887 0.0000
vn -0.4586 0.8887 0.0000
vn -0.0000 0.0000 1.0000
vn -0.0000 0.0000 1.0000
vn -0.0000 0.0000 1.0000
vn -0.0000 0.0000 1.0000
vn -0.0000 0.0000 1.0000
vn -0.0000 0.0000 1.0000
vn 0.9571 0.2897 -0.0000
vn 0.9571 0.2897 -0.0000
vn 0.9571 0.2897 -0.0000
vn 0.9571 0.2897 -0.0000
vn 0.9571 0.2897 -0.0000
vn 0.9571 0.2897 -0.0000
vn 0.0000 0.0000 -1.0000
vn 0.0000 0.0000 -1.0000
vn 0.0000 0.0000 -1.0000
vn 0.0000 0.0000 -1.0000
vn 0.0000 0.0000 -1.0000
vn 0.0000 0.0000 -1.0000
vn -0.7534 0.6576 0.0000
vn -0.7534 0.6576 0.0000
vn -0.7534 0.6576 0.0000
vn -0.7534 0.6576 0.0000
vn -0.7534 0.6576 0.0000
vn -0.7534 0.6576 0.0000
vn 0.0000 -0.0000 1.0000
vn 0.0000 -0.0000 1.0000
vn 0.0000 -0.0000 1.0000
vn 0.0000 -0.0000 1.0000
vn 0.0000 -0.0000 1.0000
vn 0.0000 -0.0000 1.0000
vn 0.9813 0.1924 -0.0000
vn 0.9813 0.1924 -0.0000
vn 0.9813 0.1924 -0.0000
vn 0.9813 0.1924 -0.0000
vn 0.9813 0.1924 -0.0000
vn 0.9813 0.1924 -0.0000
vn -0.0000 0.0000 -1.0000
vn -0.0000 0.0000 -1.0000
vn -0.0000 0.0000 -1.0000
vn -0.0000 0.0000 -1.0000
vn -0.0000 0.0000 -1.0000
vn -0.0000 0.0000 -1.0000
vn -0.9909 0.1343 0.0000
vn -0.9909 0.1343 0.0000
vn -0.9909 0.1343 0.0000
vn -0.9909 0.1343 0.0000
vn -0.9909 0.1343 0.0000
vn -0.9909 0.1343 0.0000
vn -0.0862 0.1014 0.9911
vn -0.0862 0.1014 0.9911
vn -0.0862 0.1014 0.9911
vn -0.0862 0.1014 0.9911
vn -0.0862 0.1014 0.9911
vn -0.0862 0.1014 0.9911
vn 0.8474 0.5310 0.0000
vn 0.8474 0.5310 0.0000
vn 0.8474 0.5310 0.0000
vn 0.8474 0.5310 0.0000
vn 0.8474 0.5310 0.0000
vn 0.8474 0.5310 0.0000
vn -0.0862 0.1014 -0.9911
vn -0.0862 0.1014 -0.9911
vn -0.0862 0.1014 -0.9911
vn -0.0862 0.1014 -0.9911
vn -0.0862 0.1014 -0.9911
vn -0.0862 0.1014 -0.9911
vn 0.0000 1.0000 -0.0000
vn 0.0000 1.0000 -0.0000
vn 0.0000 1.0000 -0.0000
vn 0.0000 1.0000 -0.0000
vn 0.0000 1.0000 -0.0000
vn 0.0000 1.0000 -0.0000
vn 0.0000 -1.0000 0.0000
vn 0.0000 -1.0000 0.0000
vn 0.0000 -1.0000 0.0000
vn 0.0000 -1.0000 0.0000
vn 0.0000 -1.0000 0.0000
vn 0.0000 -1.0000 0.0000
vn -0.0034 0.4341 0.9008
vn -0.0052 0.5021 0.8648
vn -0.0051 0.4954 0.8686
vn -0.0051 0.4954 0.8686
vn -0.0032 0.4307 0.9025
vn -0.0034 0.4341 0.9008
vn -0.0052 0.5021 0.8648
vn -0.0025 0.7631 0.6463
vn -0.0029 0.7430 0.6693
vn -0.0029 0.7430 0.6693
vn -0.0051 0.4954 0.8686
vn -0.0052 0.5021 0.8648
vn -0.0010 0.3889 0.9213
vn -0.0034 0.4341 0.9008
vn -0.0032 0.4307 0.9025
vn -0.0032 0.4307 0.9025
vn -0.0010 0.3889 0.9213
vn -0.0010 0.3889 0.9213
vn -0.0032 0.4307 -0.9025
vn -0.0034 0.4341 -0.9008
vn -0.0010 0.3889 -0.9213
vn -0.0010 0.3889 -0.9213
vn -0.0010 0.3889 -0.9213
vn -0.0032 0.4307 -0.9025
vn -0.9179 0.3968 0.0000
vn -0.9179 0.3968 0.0000
vn -0.8859 0.4639 0.0000
vn -0.8859 0.4639 0.0000
vn -0.8859 0.4639 0.0000
vn -0.9179 0.3968 0.0000
vn -0.0025 0.7631 0.6463
vn -0.0015 0.8206 0.5715
vn -0.0015 0.8206 0.5715
vn -0.0015 0.8206 0.5715
vn -0.0029 0.7430 0.6693
vn -0.0025 0.7631 0.6463
vn -0.0656 0.9978 0.0000
vn -0.0656 0.9978 0.0000
vn -0.0656 0.9978 0.0000
vn -0.0656 0.9978 0.0000
vn -0.0656 0.9978 0.0000
vn -0.0656 0.9978 0.0000
vn -0.0015 0.8206 -0.5715
vn -0.0015 0.8206 -0.5715
vn -0.0025 0.7631 -0.6463
vn -0.0025 0.7631 -0.6463
vn -0.0029 0.7430 -0.6693
vn -0.0015 0.8206 -0.5715
vn -0.8859 0.4639 0.0000
vn -0.7566 0.6539 -0.0000
vn -0.7566 0.6539 -0.0000
vn -0.7566 0.6539 -0.0000
vn -0.8859 0.4639 0.0000
vn -0.8859 0.4639 0.0000
vn -0.7566 0.6539 -0.0000
vn -0.6891 0.7247 -0.0000
vn -0.6891 0.7247 -0.0000
vn -0.6891 0.7247 -0.0000
vn -0.7566 0.6539 -0.0000
vn -0.7566 0.6539 -0.0000
vn -0.0034 0.4341 -0.9008
vn -0.0032 0.4307 -0.9025
vn -0.0051 0.4954 -0.8686
vn -0.0051 0.4954 -0.8686
vn -0.0052 0.5021 -0.8648
vn -0.0034 0.4341 -0.9008
vn -0.0052 0.5021 -0.8648
vn -0.0051 0.4954 -0.8686
vn -0.0029 0.7430 -0.6693
vn -0.0029 0.7430 -0.6693
vn -0.0025 0.7631 -0.6463
vn -0.0052 0.5021 -0.8648
vn 0.0002 0.3865 0.9223
vn -0.0028 0.4290 0.9033
vn -0.0021 0.4192 0.9079
vn -0.0021 0.4192 0.9079
vn 0.0002 0.3865 0.9223
vn 0.0002 0.3865 0.9223
vn 0.9758 0.2188 0.0000
vn 0.9758 0.2188 0.0000
vn 0.9758 0.2188 0.0000
vn 0.9758 0.2188 0.0000
vn 0.9758 0.2188 0.0000
vn 0.9758 0.2188 0.0000
vn -0.0021 0.4192 -0.9079
vn -0.0028 0.4290 -0.9033
vn 0.0002 0.3865 -0.9223
vn 0.0002 0.3865 -0.9223
vn 0.0002 0.3865 -0.9223
vn -0.0021 0.4192 -0.9079
vn -0.0028 0.4290 -0.9033
vn -0.0021 0.4192 -0.9079
vn 0.0044 0.4982 -0.8670
vn 0.0044 0.4982 -0.8670
vn 0.0099 0.5334 -0.8458
vn -0.0028 0.4290 -0.9033
vn 0.0099 0.5334 -0.8458
vn 0.0044 0.4982 -0.8670
vn 0.0248 0.7192 -0.6943
vn 0.0248 0.7192 -0.6943
vn 0.0268 0.7553 -0.6548
vn 0.0099 0.5334 -0.8458
vn 0.0288 0.7895 -0.6130
vn 0.0288 0.7895 -0.6130
vn 0.0268 0.7553 -0.6548
vn 0.0268 0.7553 -0.6548
vn 0.0248 0.7192 -0.6943
vn 0.0288 0.7895 -0.6130
vn 0.0000 -1.0000 0.0000
vn 0.0000 -1.0000 0.0000
vn 0.0000 -1.0000 0.0000
vn 0.0000 -1.0000 0.0000
vn 0.0000 -1.0000 0.0000
vn 0.0000 -1.0000 0.0000
vn 0.0268 0.7553 0.6548
vn 0.0288 0.7895 0.6130
vn 0.0288 0.7895 0.6130
vn 0.0288 0.7895 0.6130
vn 0.0248 0.7192 0.6943
vn 0.0268 0.7553 0.6548
vn 0.0099 0.5334 0.8458
vn 0.0268 0.7553 0.6548
vn 0.0248 0.7192 0.6943
vn 0.0248 0.7192 0.6943
vn 0.0044 0.4982 0.8670
vn 0.0099 0.5334 0.8458
vn -0.0028 0.4290 0.9033
vn 0.0099 0.5334 0.8458
vn 0.0044 0.4982 0.8670
vn 0.0044 0.4982 0.8670
vn -0.0021 0.4192 0.9079
vn -0.0028 0.4290 0.9033
vn -0.1742 -0.9847 0.0000
vn -0.1742 -0.9847 0.0000
vn -0.1742 -0.9847 0.0000
vn -0.1742 -0.9847 0.0000
vn -0.1742 -0.9847 0.0000
vn -0.1742 -0.9847 0.0000
vn 0.0660 0.7866 -0.6139
vn 0.0660 0.7866 -0.6139
vn 0.0660 0.7866 -0.6139
vn 0.0660 0.7866 -0.6139
vn 0.0660 0.7866 -0.6139
vn 0.0660 0.7866 -0.6139
vn -0.2627 0.9649 -0.0000
vn -0.2627 0.9649 -0.0000
vn -0.2627 0.9649 -0.0000
vn -0.2627 0.9649 -0.0000
vn -0.2627 0.9649 -0.0000
vn -0.2627 0.9649 -0.0000
vn 0.0660 0.7866 0.6139
vn 0.0660 0.7866 0.6139
vn 0.0660 0.7866 0.6139
vn 0.0660 0.7866 0.6139
vn 0.0660 0.7866 0.6139
vn 0.0660 0.7866 0.6139
vn -0.6487 -0.7610 0.0000
vn -0.6487 -0.7610 0.0000
vn -0.6487 -0.7610 0.0000
vn -0.6487 -0.7610 0.0000
vn -0.6487 -0.7610 0.0000
vn -0.6487 -0.7610 0.0000
vn 0.3252 0.7696 -0.5495
vn 0.3252 0.7696 -0.5495
vn 0.3252 0.7696 -0.5495
vn 0.3252 0.7696 -0.5495
vn 0.3252 0.7696 -0.5495
vn 0.3252 0.7696 -0.5495
vn -0.0507 0.9987 0.0000
vn -0.0507 0.9987 0.0000
vn -0.0507 0.9987 0.0000
vn -0.0507 0.9987 0.0000
vn -0.0507 0.9987 0.0000
vn -0.0507 0.9987 0.0000
vn 0.3252 0.7696 0.5495
vn 0.3252 0.7696 0.5495
vn 0.3252 0.7696 0.5495
vn 0.3252 0.7696 0.5495
vn 0.3252 0.7696 0.5495
vn 0.3252 0.7696 0.5495
vn 0.4586 0.8887 -0.0000
vn 0.4586 0.8887 -0.0000
vn 0.4586 0.8887 -0.0000
vn 0.4586 0.8887 -0.0000
vn 0.4586 0.8887 -0.0000
vn 0.4586 0.8887 -0.0000
vn -0.0000 0.0000 1.0000
vn -0.0000 0.0000 1.0000
vn -0.0000 0.0000 1.0000
vn -0.0000 0.0000 1.0000
vn -0.0000 0.0000 1.0000
vn -0.0000 0.0000 1.0000
vn -0.9571 0.2897 0.0000
vn -0.9571 0.2897 0.0000
vn -0.9571 0.2897 0.0000
vn -0.9571 0.2897 0.0000
vn -0.9571 0.2897 0.0000
vn -0.9571 0.2897 0.0000
vn 0.0000 0.0000 -1.0000
vn 0.0000 0.0000 -1.0000
vn 0.0000 0.0000 -1.0000
vn 0.0000 0.0000 -1.0000
vn 0.0000 0.0000 -1.0000
vn 0.0000 0.0000 -1.0000
vn 0.7534 0.6576 -0.0000
vn 0.7534 0.6576 -0.0000
vn 0.7534 0.6576 -0.0000
vn 0.7534 0.6576 -0.0000
vn 0.7534 0.6576 -0.0000
vn 0.7534 0.6576 -0.0000
vn 0.0000 0.0000 1.0000
vn 0.0000 0.0000 1.0000
vn 0.0000 0.0000 1.0000
vn 0.0000 0.0000 1.0000
vn 0.0000 0.0000 1.0000
vn 0.0000 0.0000 1.0000
vn -0.9813 0.1924 0.0000
vn -0.9813 0.1924 0.0000
vn -0.9813 0.1924 0.0000
vn -0.9813 0.1924 0.0000
vn -0.9813 0.1924 0.0000
vn -0.9813 0.1924 0.0000
vn -0.0000 -0.0000 -1.0000
vn -0.0000 -0.0000 -1.0000
vn -0.0000 -0.0000 -1.0000
vn -0.0000 -0.0000 -1.0000
vn -0.0000 -0.0000 -1.0000
vn -0.0000 -0.0000 -1.0000
vn 0.9909 0.1343 -0.0000
vn 0.9909 0.1343 -0.0000
vn 0.9909 0.1343 -0.0000
vn 0.9909 0.1343 -0.0000
vn 0.9909 0.1343 -0.0000
vn 0.9909 0.1343 -0.0000
vn 0.0862 0.1014 0.9911
vn 0.0862 0.1014 0.9911
vn 0.0862 0.1014 0.9911
vn 0.0862 0.1014 0.9911
vn 0.0862 0.1014 0.9911
vn 0.0862 0.1014 0.9911
vn -0.8474 0.5310 -0.0000
vn -0.8474 0.5310 -0.0000
vn -0.8474 0.5310 -0.0000
vn -0.8474 0.5310 -0.0000
vn -0.8474 0.5310 -0.0000
vn -0.8474 0.5310 -0.0000
vn 0.0862 0.1014 -0.9911
vn 0.0862 0.1014 -0.9911
vn 0.0862 0.1014 -0.9911
vn 0.0862 0.1014 -0.9911
vn 0.0862 0.1014 -0.9911
vn 0.0862 0.1014 -0.9911
# 528 vertex normals

vt 0.5000 0.6748 0.0000
vt 0.5000 0.6748 0.0000
vt 0.6235 0.6748 0.0000
vt 0.6235 0.6748 0.0000
vt 0.5000 0.0000 0.0000
vt 0.5000 0.0000 0.0000
vt 0.6981 0.0000 0.0000
vt 0.6981 0.0000 0.0000
vt 0.5000 0.5465 0.0000
vt 0.5000 0.3547 0.0000
vt 0.6461 0.3547 0.0000
vt 0.6296 0.5465 0.0000
vt 0.5000 0.1968 0.0000
vt 0.6650 0.1968 0.0000
vt 0.5000 0.5465 0.0000
vt 0.6296 0.5465 0.0000
vt 0.7592 0.5465 0.0000
vt 0.7592 0.5465 0.0000
vt 0.7417 0.6748 0.0000
vt 0.7417 0.6748 0.0000
vt 1.0000 0.1700 0.0000
vt 1.0000 0.1700 0.0000
vt 0.9473 0.1810 0.0000
vt 0.9473 0.1810 0.0000
vt 0.5000 0.1968 0.0000
vt 0.6650 0.1968 0.0000
vt 0.7921 0.3547 0.0000
vt 0.7921 0.3547 0.0000
vt 0.8300 0.2406 0.0000
vt 0.8300 0.2406 0.0000
vt 0.6461 0.3547 0.0000
vt 0.5000 0.3547 0.0000
vt 0.6953 0.9243 0.0000
vt 0.6953 0.9243 0.0000
vt 0.7007 1.0000 0.0000
vt 0.7007 1.0000 0.0000
vt 0.8703 0.0000 0.0000
vt 0.8703 0.0000 0.0000
vt 0.9544 0.0471 0.0000
vt 0.9544 0.0471 0.0000
vt 0.8882 0.1905 0.0000
vt 0.8882 0.1905 0.0000
vt 0.6661 0.7443 0.0000
vt 0.6661 0.7443 0.0000
vt 0.7329 0.7666 0.0000
vt 0.7329 0.7666 0.0000
vt 0.6916 0.8368 0.0000
vt 0.6916 0.8368 0.0000
vt 0.7265 0.8696 0.0000
vt 0.7265 0.8696 0.0000
vt 0.3765 0.6748 0.0000
vt 0.3765 0.6748 0.0000
vt 0.3019 0.0000 0.0000
vt 0.3019 0.0000 0.0000
vt 0.3704 0.5465 0.0000
vt 0.3539 0.3547 0.0000
vt 0.3350 0.1968 0.0000
vt 0.3704 0.5465 0.0000
vt 0.2408 0.5465 0.0000
vt 0.2583 0.6748 0.0000
vt 0.2583 0.6748 0.0000
vt 0.2408 0.5465 0.0000
vt 0.0000 0.1700 0.0000
vt 0.0527 0.1810 0.0000
vt 0.0527 0.1810 0.0000
vt 0.0000 0.1700 0.0000
vt 0.3350 0.1968 0.0000
vt 0.2079 0.3547 0.0000
vt 0.2079 0.3547 0.0000
vt 0.1700 0.2406 0.0000
vt 0.1700 0.2406 0.0000
vt 0.3539 0.3547 0.0000
vt 0.3047 0.9243 0.0000
vt 0.2993 1.0000 0.0000
vt 0.2993 1.0000 0.0000
vt 0.3047 0.9243 0.0000
vt 0.1297 0.0000 0.0000
vt 0.1297 0.0000 0.0000
vt 0.0456 0.0471 0.0000
vt 0.0456 0.0471 0.0000
vt 0.1118 0.1905 0.0000
vt 0.1118 0.1905 0.0000
vt 0.3339 0.7443 0.0000
vt 0.3339 0.7443 0.0000
vt 0.2671 0.7666 0.0000
vt 0.2671 0.7666 0.0000
vt 0.3084 0.8368 0.0000
vt 0.3084 0.8368 0.0000
vt 0.2735 0.8696 0.0000
vt 0.2735 0.8696 0.0000
# 90 texture coords

o pCube3
g pCube3
f 17/2/1 22/3/2 23/4/3 
f 23/4/4 16/1/5 17/2/6 
f 12/6/7 27/7/8 28/8/9 
f 28/8/10 11/5/11 12/6/12 
f 19/10/13 30/11/14 21/12/15 
f 21/12/16 18/9/17 19/10/18 
f 20/13/19 29/14/20 30/11/21 
f 30/11/22 19/10/23 20/13/24 
f 18/9/25 21/12/26 22/3/27 
f 22/3/28 17/2/29 18/9/30 
f 15/15/31 16/1/32 23/4/33 
f 23/4/34 24/16/35 15/15/36 
f 8/18/37 3/19/38 2/20/39 
f 2/20/40 5/17/41 8/18/42 
f 11/5/43 28/8/44 29/14/45 
f 29/14/46 20/13/47 11/5/48 
f 35/22/49 37/23/50 38/24/51 
f 38/24/52 36/21/53 35/22/54 
f 12/6/55 13/25/56 26/26/57 
f 26/26/58 27/7/59 12/6/60 
f 6/27/61 9/28/62 8/18/63 
f 8/18/64 5/17/65 6/27/66 
f 7/29/67 10/30/68 9/28/69 
f 9/28/70 6/27/71 7/29/72 
f 24/16/73 25/31/74 14/32/75 
f 14/32/76 15/15/77 24/16/78 
f 25/31/79 26/26/80 13/25/81 
f 13/25/82 14/32/83 25/31/84 
f 21/12/85 5/17/86 2/20/87 
f 2/20/88 22/3/89 21/12/90 
f 47/34/91 49/35/92 50/36/93 
f 50/36/94 48/33/95 47/34/96 
f 24/16/97 23/4/98 3/19/99 
f 3/19/100 8/18/101 24/16/102 
f 8/18/103 9/28/104 25/31/105 
f 25/31/106 24/16/107 8/18/108 
f 9/28/109 10/30/110 26/26/111 
f 26/26/112 25/31/113 9/28/114 
f 27/7/115 26/26/116 10/30/117 
f 10/30/118 4/37/119 27/7/120 
f 27/7/121 4/37/122 1/38/123 
f 1/38/124 28/8/125 27/7/126 
f 28/8/127 1/38/128 7/29/129 
f 7/29/130 29/14/131 28/8/132 
f 29/14/133 7/29/134 6/27/135 
f 6/27/136 30/11/137 29/14/138 
f 30/11/139 6/27/140 5/17/141 
f 5/17/142 21/12/143 30/11/144 
f 4/37/145 31/39/146 32/40/147 
f 32/40/148 1/38/149 4/37/150 
f 4/37/151 10/30/152 33/41/153 
f 33/41/154 31/39/155 4/37/156 
f 7/29/157 34/42/158 33/41/159 
f 33/41/160 10/30/161 7/29/162 
f 1/38/163 32/40/164 34/42/165 
f 34/42/166 7/29/167 1/38/168 
f 31/39/169 35/22/170 36/21/171 
f 36/21/172 32/40/173 31/39/174 
f 31/39/175 33/41/176 37/23/177 
f 37/23/178 35/22/179 31/39/180 
f 34/42/181 38/24/182 37/23/183 
f 37/23/184 33/41/185 34/42/186 
f 32/40/187 36/21/188 38/24/189 
f 38/24/190 34/42/191 32/40/192 
f 22/3/193 39/43/194 40/44/195 
f 40/44/196 23/4/197 22/3/198 
f 2/20/199 41/45/200 39/43/201 
f 39/43/202 22/3/203 2/20/204 
f 3/19/205 42/46/206 41/45/207 
f 41/45/208 2/20/209 3/19/210 
f 3/19/211 23/4/212 40/44/213 
f 40/44/214 42/46/215 3/19/216 
f 39/43/217 43/47/218 44/48/219 
f 44/48/220 40/44/221 39/43/222 
f 41/45/223 45/49/224 43/47/225 
f 43/47/226 39/43/227 41/45/228 
f 42/46/229 46/50/230 45/49/231 
f 45/49/232 41/45/233 42/46/234 
f 42/46/235 40/44/236 44/48/237 
f 44/48/238 46/50/239 42/46/240 
f 43/47/241 47/34/242 48/33/243 
f 48/33/244 44/48/245 43/47/246 
f 45/49/247 49/35/248 47/34/249 
f 47/34/250 43/47/251 45/49/252 
f 46/50/253 50/36/254 49/35/255 
f 49/35/256 45/49/257 46/50/258 
f 46/50/259 44/48/260 48/33/261 
f 48/33/262 50/36/263 46/50/264 
f 63/51/265 62/52/266 17/2/267 
f 17/2/268 16/1/269 63/51/270 
f 68/53/271 67/54/272 12/6/273 
f 12/6/274 11/5/275 68/53/276 
f 61/55/277 70/56/278 19/10/279 
f 19/10/280 18/9/281 61/55/282 
f 70/56/283 69/57/284 20/13/285 
f 20/13/286 19/10/287 70/56/288 
f 62/52/289 61/55/290 18/9/291 
f 18/9/292 17/2/293 62/52/294 
f 15/15/295 64/58/296 63/51/297 
f 63/51/298 16/1/299 15/15/300 
f 52/60/301 53/61/302 58/62/303 
f 58/62/304 55/59/305 52/60/306 
f 69/57/307 68/53/308 11/5/309 
f 11/5/310 20/13/311 69/57/312 
f 78/64/313 77/65/314 75/66/315 
f 75/66/316 76/63/317 78/64/318 
f 12/6/319 67/54/320 66/67/321 
f 66/67/322 13/25/323 12/6/324 
f 58/62/325 59/68/326 56/69/327 
f 56/69/328 55/59/329 58/62/330 
f 59/68/331 60/70/332 57/71/333 
f 57/71/334 56/69/335 59/68/336 
f 64/58/337 15/15/338 14/32/339 
f 14/32/340 65/72/341 64/58/342 
f 65/72/343 14/32/344 13/25/345 
f 13/25/346 66/67/347 65/72/348 
f 52/60/349 55/59/350 61/55/351 
f 61/55/352 62/52/353 52/60/354 
f 90/74/355 89/75/356 87/76/357 
f 87/76/358 88/73/359 90/74/360 
f 64/58/361 58/62/362 53/61/363 
f 53/61/364 63/51/365 64/58/366 
f 58/62/367 64/58/368 65/72/369 
f 65/72/370 59/68/371 58/62/372 
f 59/68/373 65/72/374 66/67/375 
f 66/67/376 60/70/377 59/68/378 
f 67/54/379 54/77/380 60/70/381 
f 60/70/382 66/67/383 67/54/384 
f 51/78/385 54/77/386 67/54/387 
f 67/54/388 68/53/389 51/78/390 
f 57/71/391 51/78/392 68/53/393 
f 68/53/394 69/57/395 57/71/396 
f 56/69/397 57/71/398 69/57/399 
f 69/57/400 70/56/401 56/69/402 
f 55/59/403 56/69/404 70/56/405 
f 70/56/406 61/55/407 55/59/408 
f 72/79/409 71/80/410 54/77/411 
f 54/77/412 51/78/413 72/79/414 
f 54/77/415 71/80/416 73/81/417 
f 73/81/418 60/70/419 54/77/420 
f 73/81/421 74/82/422 57/71/423 
f 57/71/424 60/70/425 73/81/426 
f 74/82/427 72/79/428 51/78/429 
f 51/78/430 57/71/431 74/82/432 
f 76/63/433 75/66/434 71/80/435 
f 71/80/436 72/79/437 76/63/438 
f 71/80/439 75/66/440 77/65/441 
f 77/65/442 73/81/443 71/80/444 
f 77/65/445 78/64/446 74/82/447 
f 74/82/448 73/81/449 77/65/450 
f 78/64/451 76/63/452 72/79/453 
f 72/79/454 74/82/455 78/64/456 
f 80/83/457 79/84/458 62/52/459 
f 62/52/460 63/51/461 80/83/462 
f 79/84/463 81/85/464 52/60/465 
f 52/60/466 62/52/467 79/84/468 
f 81/85/469 82/86/470 53/61/471 
f 53/61/472 52/60/473 81/85/474 
f 53/61/475 82/86/476 80/83/477 
f 80/83/478 63/51/479 53/61/480 
f 84/87/481 83/88/482 79/84/483 
f 79/84/484 80/83/485 84/87/486 
f 83/88/487 85/89/488 81/85/489 
f 81/85/490 79/84/491 83/88/492 
f 85/89/493 86/90/494 82/86/495 
f 82/86/496 81/85/497 85/89/498 
f 82/86/499 86/90/500 84/87/501 
f 84/87/502 80/83/503 82/86/504 
f 88/73/505 87/76/506 83/88/507 
f 83/88/508 84/87/509 88/73/510 
f 87/76/511 89/75/512 85/89/513 
f 85/89/514 83/88/515 87/76/516 
f 89/75/517 90/74/518 86/90/519 
f 86/90/520 85/89/521 89/75/522 
f 86/90/523 90/74/524 88/73/525 
f 88/73/526 84/87/527 86/90/528 
# 176 faces

